<?xml version="1.0" encoding="utf-8"?>
<!-- Generator: Adobe Illustrator 17.0.0, SVG Export Plug-In . SVG Version: 6.00 Build 0)  -->
<!DOCTYPE svg PUBLIC "-//W3C//DTD SVG 1.1//EN" "http://www.w3.org/Graphics/SVG/1.1/DTD/svg11.dtd">
<svg version="1.1" id="Layer_1" xmlns="http://www.w3.org/2000/svg" xmlns:xlink="http://www.w3.org/1999/xlink" x="0px" y="0px"
	 width="200px" height="200px" viewBox="0 0 200 200" enable-background="new 0 0 200 200" xml:space="preserve">
<g>
	<path d="M102.798,125.849c0.07-23.721,19.251-42.833,42.967-42.811c23.59,0.021,42.958,19.37,42.988,42.945
		c0.031,23.804-19.438,43.115-43.372,43.021C121.712,168.911,102.728,149.671,102.798,125.849z M139.606,132.472
		c0,7.981,0,15.04,0,22.048c4.41,0,8.169,0,12.46,0c0-7.375,0-14.453,0-22.098c7.612,0,14.692,0,21.849,0c0-4.457,0-8.322,0-12.707
		c-7.483,0-14.556,0-22.185,0c0-7.739,0-14.961,0-22.124c-4.333,0-8.077,0-12.503,0c0,7.534,0,14.743,0,22.464
		c-7.753,0-14.821,0-22.038,0c0,4.307,0,8.076,0,12.418C124.46,132.472,131.545,132.472,139.606,132.472z"/>
	<path d="M107.226,94.785c-9.52,12.297-12.317,25.888-9.231,41.276c-4.89,0-9.517,0-14.144,0c-10.661,0-21.324-0.122-31.981,0.074
		c-3.14,0.058-4.4-0.965-4.876-4.015c-2.324-14.914,4.958-30.28,18.529-38.726C78.923,85.054,94.102,85.439,107.226,94.785z"/>
	<path d="M86.016,30.997c13.691,0.12,24.437,11.241,24.295,25.142c-0.143,13.971-11.045,24.719-24.871,24.521
		c-14.128-0.203-24.832-11.208-24.651-25.346C60.961,41.773,72.267,30.876,86.016,30.997z"/>
	<path d="M37.774,64.765c9.296-0.007,16.77,7.547,16.72,16.897c-0.051,9.501-7.377,16.678-16.922,16.579
		c-9.228-0.096-16.465-7.343-16.511-16.535C21.014,72.375,28.515,64.771,37.774,64.765z"/>
	<path d="M43.664,106.583c-1.554,9.926-3.059,19.535-4.578,29.235c-9.197,0-17.965,0-27.015,0
		c-2.619-9.813,1.265-17.343,8.04-23.634C26.661,106.101,34.235,103.171,43.664,106.583z"/>
	<path d="M117.268,85.487c-1.527-10.905,4.644-19.513,14.039-20.589c8.994-1.03,16.658,4.451,17.65,12.889
		C137.714,76.661,127.301,79.229,117.268,85.487z"/>
</g>
</svg>
