<?xml version="1.0" encoding="utf-8"?>
<!-- Generator: Adobe Illustrator 17.0.0, SVG Export Plug-In . SVG Version: 6.00 Build 0)  -->
<!DOCTYPE svg PUBLIC "-//W3C//DTD SVG 1.1//EN" "http://www.w3.org/Graphics/SVG/1.1/DTD/svg11.dtd">
<svg version="1.1" id="Layer_1" xmlns="http://www.w3.org/2000/svg" xmlns:xlink="http://www.w3.org/1999/xlink" x="0px" y="0px"
	 width="200px" height="200px" viewBox="0 0 200 200" enable-background="new 0 0 200 200" xml:space="preserve">
<g>
	<path d="M118.465,1.522H24.09c-12.474,0-22.568,10.094-22.568,22.568v127.201c0,12.474,10.094,22.568,22.568,22.568h54.081
		c-4.432-9.355-6.893-19.778-6.893-30.774c0-9.437,1.805-18.465,5.17-26.753c-0.328,0.082-0.657,0.082-1.067,0.082H34.348
		c-4.514,0-8.206-3.693-8.206-8.206S29.835,100,34.348,100h41.032c3.118,0,5.909,1.805,7.222,4.432
		c5.334-8.289,12.228-15.346,20.352-20.844H34.348c-4.514,0-8.206-3.693-8.206-8.206s3.693-8.206,8.206-8.206h73.858
		c4.514,0,8.206,3.693,8.206,8.206c0,0.41,0,0.739-0.082,1.067c7.632-3.118,16.003-4.924,24.702-5.088V24.09
		C141.032,11.616,130.938,1.522,118.465,1.522z M67.174,50.761H34.348c-4.514,0-8.206-3.693-8.206-8.206s3.693-8.206,8.206-8.206
		h32.826c4.514,0,8.206,3.693,8.206,8.206S71.688,50.761,67.174,50.761z"/>
	<path d="M143.084,87.69c-30.545,0-55.394,24.849-55.394,55.394s24.849,55.394,55.394,55.394s55.394-24.849,55.394-55.394
		S173.629,87.69,143.084,87.69z M165.652,151.291h-14.361v14.361c0,4.53-3.677,8.206-8.206,8.206s-8.206-3.677-8.206-8.206v-14.361
		h-14.361c-4.53,0-8.206-3.676-8.206-8.206s3.677-8.206,8.206-8.206h14.361v-14.361c0-4.53,3.676-8.206,8.206-8.206
		s8.206,3.677,8.206,8.206v14.361h14.361c4.53,0,8.206,3.677,8.206,8.206S170.182,151.291,165.652,151.291z"/>
</g>
<g>
	<path d="M-223.869,81.678c0.07-23.721,19.251-42.833,42.967-42.811c23.59,0.021,42.958,19.37,42.988,42.945
		c0.031,23.804-19.438,43.115-43.372,43.021C-204.955,124.74-223.939,105.5-223.869,81.678z M-187.061,88.301
		c0,7.981,0,15.04,0,22.048c4.41,0,8.169,0,12.46,0c0-7.375,0-14.453,0-22.098c7.612,0,14.692,0,21.849,0c0-4.457,0-8.322,0-12.707
		c-7.483,0-14.556,0-22.185,0c0-7.739,0-14.961,0-22.124c-4.333,0-8.077,0-12.503,0c0,7.534,0,14.743,0,22.464
		c-7.753,0-14.821,0-22.038,0c0,4.307,0,8.076,0,12.418C-202.206,88.301-195.122,88.301-187.061,88.301z"/>
	<path d="M-219.441,50.614c-9.52,12.297-12.317,25.888-9.231,41.276c-4.89,0-9.517,0-14.144,0c-10.661,0-21.324-0.122-31.981,0.074
		c-3.14,0.058-4.4-0.965-4.876-4.015c-2.324-14.914,4.958-30.28,18.529-38.726C-247.744,40.883-232.565,41.267-219.441,50.614z"/>
	<path d="M-240.65-13.175c13.691,0.12,24.437,11.241,24.295,25.142c-0.143,13.971-11.045,24.719-24.871,24.521
		c-14.128-0.203-24.832-11.208-24.651-25.346C-265.706-2.398-254.4-13.296-240.65-13.175z"/>
	<path d="M-288.893,20.594c9.296-0.007,16.77,7.547,16.72,16.897c-0.051,9.501-7.378,16.678-16.922,16.579
		c-9.228-0.096-16.465-7.343-16.511-16.535C-305.653,28.203-298.152,20.6-288.893,20.594z"/>
	<path d="M-283.002,62.411c-1.554,9.926-3.059,19.535-4.578,29.235c-9.197,0-17.965,0-27.016,0
		c-2.619-9.813,1.265-17.343,8.04-23.634C-300.005,61.93-292.431,59-283.002,62.411z"/>
	<path d="M-209.399,41.316c-1.527-10.905,4.644-19.513,14.039-20.589c8.994-1.03,16.658,4.451,17.65,12.889
		C-188.953,32.49-199.366,35.058-209.399,41.316z"/>
</g>
<g>
	<g>
		<path d="M305.364,148.491c-0.998-0.255-1.992-0.524-2.994-0.763c-10.262-2.452-15.63-10.349-13.386-21.259
			c2.173-10.565,5.451-20.898,7.952-31.402c1.1-4.62,1.852-9.393,2.074-14.129c0.195-4.142-1.635-5.975-5.818-6.402
			c-2.701-0.276-5.504,0.176-8.231,0.532c-1.562,0.204-3.064,0.871-4.592,1.328c-0.097-0.322-0.197-0.492-0.19-0.657
			c0.209-5.07,2.965-7.548,7.791-8.991c7.552-2.257,14.899-4.794,23.018-3.668c9.793,1.359,15.653,8.289,15.342,18.147
			c-0.305,9.659-4.047,18.468-6.282,27.649c-1.335,5.482-2.661,10.967-3.989,16.451c-0.068,0.279-0.125,0.563-0.165,0.847
			c-1.074,7.625,1.713,10.975,9.376,10.673c3.284-0.129,6.535-1.1,9.915-1.708c-0.316,1.429-0.472,3.163-1.116,4.691
			c-0.455,1.079-1.4,2.367-2.42,2.725c-6.025,2.114-12.136,3.984-18.217,5.936C310.742,148.491,308.053,148.491,305.364,148.491z"/>
		<path d="M323.805,18.825c2.623,1.288,5.551,2.184,7.805,3.943c5.014,3.912,6.598,9.257,4.87,15.414
			c-1.526,5.438-7.095,9.978-12.779,10.62c-9.112,1.029-16.726-3.844-18.462-11.816c-1.696-7.787,3.474-15.705,11.482-17.6
			c0.641-0.152,1.265-0.373,1.897-0.561C320.347,18.825,322.076,18.825,323.805,18.825z"/>
	</g>
	<g>
		<path d="M308.667,180.491c-53.394,0-96.833-43.44-96.833-96.834s43.439-96.833,96.833-96.833S405.5,30.263,405.5,83.657
			S362.061,180.491,308.667,180.491z M308.667,3.15c-44.392,0-80.507,36.116-80.507,80.507c0,44.393,36.116,80.508,80.507,80.508
			s80.507-36.116,80.507-80.508C389.174,39.266,353.059,3.15,308.667,3.15z"/>
	</g>
</g>
</svg>
