<svg xmlns="http://www.w3.org/2000/svg" xmlns:xlink="http://www.w3.org/1999/xlink" width="50" height="50" viewBox="0 0 50 50">
  <defs>
    <clipPath id="clip-path">
      <rect id="Rectangle_44" data-name="Rectangle 44" width="28" height="28" transform="translate(1038 41)" fill="#539087" stroke="#707070" stroke-width="1"/>
    </clipPath>
  </defs>
  <g id="Group_139" data-name="Group 139" transform="translate(-1027 -30)">
    <circle id="Ellipse_24" data-name="Ellipse 24" cx="25" cy="25" r="25" transform="translate(1027 30)" fill="#fff"/>
    <g id="Mask_Group_19" data-name="Mask Group 19" clip-path="url(#clip-path)">
      <g id="list" transform="translate(1038 41)">
        <path id="Path_94" data-name="Path 94" d="M26.6,24.167H7.88a1.4,1.4,0,1,1,0-2.794H26.6a1.4,1.4,0,0,1,0,2.794Z" fill="#539087"/>
        <path id="Path_95" data-name="Path 95" d="M26.6,15.4H7.88a1.4,1.4,0,0,1,0-2.794H26.6a1.4,1.4,0,0,1,0,2.794Z" fill="#539087"/>
        <path id="Path_96" data-name="Path 96" d="M26.6,6.628H7.88a1.4,1.4,0,0,1,0-2.794H26.6a1.4,1.4,0,0,1,0,2.794Z" fill="#539087"/>
        <circle id="Ellipse_30" data-name="Ellipse 30" cx="1.876" cy="1.876" r="1.876" transform="translate(0 3.462)" fill="#539087"/>
        <circle id="Ellipse_31" data-name="Ellipse 31" cx="1.876" cy="1.876" r="1.876" transform="translate(0 12.124)" fill="#539087"/>
        <circle id="Ellipse_32" data-name="Ellipse 32" cx="1.876" cy="1.876" r="1.876" transform="translate(0 20.786)" fill="#539087"/>
      </g>
    </g>
  </g>
</svg>
