<svg xmlns="http://www.w3.org/2000/svg" xmlns:xlink="http://www.w3.org/1999/xlink" width="50" height="50" viewBox="0 0 50 50">
  <defs>
    <clipPath id="clip-path">
      <rect id="Rectangle_44" data-name="Rectangle 44" width="28" height="28" transform="translate(1178 41)" fill="#539087" stroke="#707070" stroke-width="1"/>
    </clipPath>
  </defs>
  <g id="Group_141" data-name="Group 141" transform="translate(-1167 -30)">
    <circle id="Ellipse_24" data-name="Ellipse 24" cx="25" cy="25" r="25" transform="translate(1167 30)" fill="#fff"/>
    <g id="Mask_Group_21" data-name="Mask Group 21" clip-path="url(#clip-path)">
      <path id="denied" d="M14,0A14,14,0,1,0,28,14,14.016,14.016,0,0,0,14,0Zm0,2.551a11.392,11.392,0,0,1,7.14,2.506L5.057,21.14A11.443,11.443,0,0,1,14,2.551Zm0,22.9a11.393,11.393,0,0,1-7.14-2.506L22.943,6.86A11.443,11.443,0,0,1,14,25.449Z" transform="translate(1178 41)" fill="#539087"/>
    </g>
  </g>
</svg>
