<svg xmlns="http://www.w3.org/2000/svg" xmlns:xlink="http://www.w3.org/1999/xlink" width="50" height="50" viewBox="0 0 50 50">
  <defs>
    <clipPath id="clip-path">
      <rect id="Rectangle_44" data-name="Rectangle 44" width="28" height="28" transform="translate(1248 41)" fill="#539087" stroke="#707070" stroke-width="1"/>
    </clipPath>
  </defs>
  <g id="Group_142" data-name="Group 142" transform="translate(-1237 -30)">
    <circle id="Ellipse_24" data-name="Ellipse 24" cx="25" cy="25" r="25" transform="translate(1237 30)" fill="#fff"/>
    <g id="Mask_Group_22" data-name="Mask Group 22" clip-path="url(#clip-path)">
      <g id="info" transform="translate(1248 41)">
        <path id="Path_103" data-name="Path 103" d="M19.815,24.978l-.391,1.6q-1.761.695-2.809,1.058A7.41,7.41,0,0,1,14.179,28a4.864,4.864,0,0,1-3.314-1.039A3.364,3.364,0,0,1,9.682,24.32a9.341,9.341,0,0,1,.088-1.271q.09-.65.286-1.467l1.467-5.192q.2-.746.33-1.414a6.143,6.143,0,0,0,.134-1.217,1.882,1.882,0,0,0-.411-1.387,2.319,2.319,0,0,0-1.569-.392,4.111,4.111,0,0,0-1.166.178c-.4.118-.74.232-1.026.338l.392-1.6q1.441-.587,2.758-1a8.248,8.248,0,0,1,2.494-.418A4.744,4.744,0,0,1,16.723,10.5a3.4,3.4,0,0,1,1.147,2.658c0,.226-.025.623-.079,1.191a7.968,7.968,0,0,1-.294,1.566l-1.461,5.171a13.735,13.735,0,0,0-.321,1.424,7.331,7.331,0,0,0-.143,1.208,1.741,1.741,0,0,0,.46,1.4,2.6,2.6,0,0,0,1.6.373,4.614,4.614,0,0,0,1.208-.187A6.755,6.755,0,0,0,19.815,24.978Zm.37-21.708a3.026,3.026,0,0,1-1.022,2.3,3.478,3.478,0,0,1-2.46.953,3.517,3.517,0,0,1-2.473-.953A3.019,3.019,0,0,1,13.2,3.27,3.049,3.049,0,0,1,14.231.959a3.65,3.65,0,0,1,4.933,0A3.055,3.055,0,0,1,20.186,3.27Z" fill="#539087"/>
      </g>
    </g>
  </g>
</svg>
